<svg id="Layer_1" data-name="Layer 1" xmlns="http://www.w3.org/2000/svg" viewBox="0 0 1080 225"><defs><style>.cls-1{fill:#dcd7c9;}</style></defs><path class="cls-1" d="M175.38,120.88q0,9.63-6.93,17.91-9.8,11.84-26.19,17.06a77.54,77.54,0,0,1-23.65,3.89,66.22,66.22,0,0,1-8.28-.51q-26.52-3.37-44.94-11.65-16.72,12.33-35.32,12.33-22,0-27.2-12.16A17.68,17.68,0,0,1,1.69,141q0-3.88,3.89-8.28,6.08-6.77,16.89-6.76a38.18,38.18,0,0,1,12.84,2,103.53,103.53,0,0,1,14.2,6.59Q58,139.13,62,141.16q7.42-7.28,15.37-20.2A284.54,284.54,0,0,0,91.32,95.62q6-12.42,15.29-27.63a173.76,173.76,0,0,1,18.93-25.85l9.63-11a169.69,169.69,0,0,0-29.4-2.36A166.24,166.24,0,0,0,70.46,33Q44.09,38.6,29.91,55.66,21.29,66,21.29,75.26q0,12.33,12,16a27.9,27.9,0,0,0,7.43,1.18,27.9,27.9,0,0,0,7.43-1.18,19.7,19.7,0,0,0,8.2-5A27.88,27.88,0,0,0,62.09,79a13.54,13.54,0,0,0,1.78-5.33c0-1.18.56-1.77,1.69-1.77s1.74.9,1.86,2.37v.17Q65.55,86.75,54.24,93.17a29.08,29.08,0,0,1-13.86,3.72L31.6,95.37Q13.67,89.12,13.69,72.05q0-11.65,10.3-23Q40.55,30.49,72.65,25.92A231.81,231.81,0,0,1,105,23.73a164,164,0,0,1,34.21,3.71A30.15,30.15,0,0,1,147.5,22a22.58,22.58,0,0,1,4.14-1.35,1.16,1.16,0,0,1,.76.16c.68,0,.82.37.42,1.1s-1.63,1.78-3.71,3.13-3.36,2.59-3.8,3.72q23,5.91,33.11,16.89,5.42,6.09,5.41,12.42a25.31,25.31,0,0,1-3.72,12.76q-4.91,8.44-15.88,12.75a68.71,68.71,0,0,1-22.13,4.82,80.29,80.29,0,0,1,20.1,9.46Q175.39,106.53,175.38,120.88ZM58.29,144.37q-19.77-9.47-25-11.33a31.2,31.2,0,0,0-10.4-1.85,10.14,10.14,0,0,0-8.19,3.63q-3,3.63-3,6.59A12.51,12.51,0,0,0,13,147.07q3.72,7.6,15.54,7.6Q44.6,154.67,58.29,144.37Zm58,10.64q18.93,0,32.11-10.81,14.35-11.49,14.36-24.84,0-13.86-14.7-21a107.81,107.81,0,0,0-13.26-5q-7.86-2.44-12.68-4.14t-5.49-3.21q0-3.19,4.9-3.38,3.21,0,9.8.51c4.39.34,8.17.48,11.32.42s7-1.18,11.41-3.38a37.47,37.47,0,0,0,11.4-8.53Q173,63.27,173,55.83,173,39.95,143.28,33q-9,12.33-32.1,52.12T75.52,138.45l-6.42,6.08a143.19,143.19,0,0,0,41.06,10.14A57,57,0,0,0,116.24,155Z"/><path class="cls-1" d="M162.2,206.71q-7.44,0-11.49-3.12c-2.7-2.09-4.06-4.59-4.06-7.52a24.55,24.55,0,0,1,2.54-10q4.4-8.62,15.88-13.86a123.7,123.7,0,0,1,22.81-7.51q14.19-3.47,18.25-4.65,6.08-10.65,14.53-38-9.81,17.24-16.39,24.16t-13.35,6.93q-9.12,0-10.64-7.6a5.65,5.65,0,0,1-.34-3.55c.22-1.58.36-2.7.42-3.38a12.07,12.07,0,0,1,1.1-3.29c.68-1.52,1.12-2.62,1.35-3.3A68.38,68.38,0,0,1,186,126q-2.7,0-1.52-2.7l3-5.92q5.75-11,9.46-18.58,1.69-3.56,6.59-3.55H213.9c-.23.22-.79.67-1.69,1.35a13.92,13.92,0,0,0-4.56,4.73q-6.09,10.48-15.21,29.91-3.72,7.94-3.71,11.65t1.26,5.24a4.26,4.26,0,0,0,3.47,1.52q3.21,0,8.95-6.76,12-14,26.53-44.09c1.24-2.37,3.43-3.55,6.59-3.55h9.12a22.12,22.12,0,0,0-6.93,7.69,99.51,99.51,0,0,0-5.49,12.58q-3,7.95-7.43,21.12T218,156.36q15.87-4.73,24.33-16.73,3.71-5.24,10.64-18.58c.79-1.58,1.49-2.2,2.11-1.86a1.52,1.52,0,0,1,.93,1.35c0,.57-.93,2.73-2.79,6.51s-3.74,7.26-5.66,10.47a63.65,63.65,0,0,1-7.43,9.89,36.74,36.74,0,0,1-10.14,8,122,122,0,0,1-14.87,6.34q-13,23.65-26.19,34.8Q176.56,206.71,162.2,206.71ZM152.4,190a15.47,15.47,0,0,0-1.86,6.85,5.55,5.55,0,0,0,2.37,4.81,9.86,9.86,0,0,0,5.91,1.69q9.8,0,21-10.05a142.78,142.78,0,0,0,19.6-21.54l3.72-6.25q-27.89,7.26-35.15,10.47Q157.14,180.69,152.4,190Z"/><path class="cls-1" d="M399.25,78.13c2.59,0,3.88,1.64,3.88,4.9a14.24,14.24,0,0,1-4.22,9.8,93.69,93.69,0,0,0-13.69,20.78q-9.47,18.93-9.46,34.14,0,5.91,2.11,8.61a6.08,6.08,0,0,0,4.82,2.71q8.1,0,18.92-13.18a111.9,111.9,0,0,0,14.7-24c.9-1.8,1.8-2.59,2.7-2.36s1,1.24.17,3a140.79,140.79,0,0,1-15.71,27A39.22,39.22,0,0,1,392.15,160a25.57,25.57,0,0,1-13.43,4.14,11.15,11.15,0,0,1-10.06-5.32,23,23,0,0,1-3.38-12.59,59.14,59.14,0,0,1,1.78-14.36,31.2,31.2,0,0,1,4.65-11q-17.07,20.44-36.33,32.78a51.72,51.72,0,0,1-22.47,7.43,32.59,32.59,0,0,1-4,.17,14.92,14.92,0,0,1-6.68-2q-12.17-5.07-12.16-24.75t12.84-42.66a124,124,0,0,1,14.87-21.46Q306.49,65,300.91,58.7a16,16,0,0,1-4.05-11q0-6.42,2.53-8.11c1.12-1.46,2.14-1.75,3-.84a3.75,3.75,0,0,1,.09,3.71,10.84,10.84,0,0,0-.93,4.23q0,4.56,4.9,10.13t14.36,10q39.7-44.1,82.45-44.1,13.35,0,21.2,6t7.86,15.46q0,10.3-11.49,19.94-5.75,5.07-16.39,8.79-16.22,5.75-38.6,5.74t-37.09-4.73Q311.72,98.07,305.3,114t-6.42,24.75a31.39,31.39,0,0,0,.17,3.38q2,14,14.2,14,13.68,0,31.76-14.87a200.92,200.92,0,0,0,25.17-25.68q12.35-14.86,18.34-26.19T399.25,78.13Zm26.18-36a12.53,12.53,0,0,0-6-11.15q-6-3.89-16.48-3.88a66.85,66.85,0,0,0-20.86,3.38,68.94,68.94,0,0,0-19.43,10A141.62,141.62,0,0,0,346.61,54q-7,6.93-15.12,16.56,12.67,4.05,31.09,4,34.64,0,50.52-11.15Q425.43,54.82,425.43,42.14Z"/><path class="cls-1" d="M468,97.9q-20.77,36.5-20.78,47.65,0,4.39,3.21,4.39,8.61,0,23.15-29.23c.67-1.58,1.35-2.2,2-1.86a1.53,1.53,0,0,1,1,1.35,4.25,4.25,0,0,1-.68,2q-9,18.09-15.12,24.92T448.5,154a10.62,10.62,0,0,1-9.38-4.73,9.61,9.61,0,0,1-1.69-6,31.68,31.68,0,0,1,1.69-9.21q1.68-5.4,9.29-17.57a10.29,10.29,0,0,0,1.86-4.82c0-1.18-1-1.77-2.87-1.77s-5.58,2.53-11,7.6Q424.26,128.65,412.93,151a4.52,4.52,0,0,1-2.28,2.11,22.73,22.73,0,0,1-5,.59,12.67,12.67,0,0,0-4.9.84q2.72-5.4,10.65-22.13Q425.6,102.81,430,98.58a7.57,7.57,0,0,1,5.58-2,28,28,0,0,1,3.46.51,11,11,0,0,0,4.14.17q-6.26,3.38-20.44,31.76a137,137,0,0,1,14.45-15.63,82.7,82.7,0,0,1,15.62-10.81q9.13-5,13.35-5A5,5,0,0,1,468,97.9Z"/><path class="cls-1" d="M467.67,143.52q0-7.26,6.25-17.57-2.7,0-1.52-2.7l3-5.92q5.74-11,9.47-18.58c1.12-2.37,3.32-3.55,6.58-3.55H501.8q-6.07,4.39-12.25,17T480,132q-3.39,7.19-3.38,10.89t1.26,5.24a4.26,4.26,0,0,0,3.47,1.52q3.21,0,8.95-6.76,9-10.47,25.18-44.09c1.24-2.37,3.43-3.55,6.59-3.55h9.12a27.22,27.22,0,0,0-5.83,5.91,87.31,87.31,0,0,0-5.83,10.81q-10.14,20.28-11.32,26.87a20.94,20.94,0,0,0-.51,4.39c0,3.61,1.24,5.52,3.72,5.75q9.12,0,22.47-28.22c.68-1.58,1.36-2.2,2-1.86a1.52,1.52,0,0,1,1,1.35,12.64,12.64,0,0,1-1.52,3.89L532.47,130q-1.44,2.88-4.4,7.86a53.1,53.1,0,0,1-5.49,7.86q-6.58,7.42-12.92,7.43t-8.7-5.57a17.34,17.34,0,0,1-1-6.42,35.33,35.33,0,0,1,1.69-9.64q-12.33,21.63-22.81,21.63-9.12,0-10.64-7.6A3.85,3.85,0,0,1,467.67,143.52Z"/><path class="cls-1" d="M556.71,85.57q0,7.61-9.63,14.36c2.25.11,5.27.17,9,.17s8.53-.28,14.28-.85a6.38,6.38,0,0,1,.34,2.71q0,2.19-2,6.5c-1.35,2.87-2.57,5.35-3.63,7.44s-2.09,4-3,5.91-2,4.14-3.22,6.84-2.17,5.18-3,7.44q-4.23,12.84,1.35,12.84,7.1,0,20.95-28.22c.79-1.46,1.44-2,1.94-1.69a1.49,1.49,0,0,1,.76,1.27c0,.51-.73,2.25-2.19,5.24s-3,6.05-4.73,9.2a63.49,63.49,0,0,1-7.94,11q-6.43,7.77-12.34,7.77-6.58,0-9.12-7.94A15.34,15.34,0,0,1,544,141a24.26,24.26,0,0,1,1.94-8.11,89.44,89.44,0,0,1,6.17-12.34q4.22-7.26,4.73-8.53a6.56,6.56,0,0,0,.51-2.45q0-5.24-13.52-5.58l-2,5.41q-10.64,27.89-20.44,37.34c-1.13,1-1.69.68-1.69-1a2.72,2.72,0,0,1,.34-1.19A129.71,129.71,0,0,0,536.44,115a161.07,161.07,0,0,0,9.63-32.44q1-5.23,4.73-5.24T556.21,82A11.48,11.48,0,0,1,556.71,85.57Z"/><path class="cls-1" d="M620.58,121.3q-5.58,10.74-6.67,16a44.12,44.12,0,0,0-1.1,8.62c0,2.2.84,3.3,2.53,3.3q3.21,0,7.94-5.92A120,120,0,0,0,637,120.88c.45-1,.95-1.58,1.52-1.69.9-.34,1.35,0,1.35,1a5.24,5.24,0,0,1-.51,2q-15.54,31.42-26.19,31.43-4.89,0-7.94-4.73a13.09,13.09,0,0,1-1.52-6.76,40,40,0,0,1,1.69-10.31q-13.51,21.79-23.31,21.8a7.8,7.8,0,0,1-4.9-1.69q-5.07-3.56-5.07-12.17,0-16.55,14.36-33.62a37.25,37.25,0,0,1,19.94-12.33,23.53,23.53,0,0,1,6.08-.85,17.93,17.93,0,0,1,13.18,5.41c1.12,1.24,1.46,2.42,1,3.55s-1.41,1.57-2.87,1.35q-1.86-6.09-8.11-6.08-7.27,0-17.91,11.48a92,92,0,0,0-11.32,15.89q-6.59,11-6.59,17.57t4.22,6.59q10.14,0,26.53-31.09,3.21-6.26,5.41-8.53a7.4,7.4,0,0,1,5.57-2.28,27.39,27.39,0,0,1,3.47.5,10.56,10.56,0,0,0,4.14.17Q626.16,110.58,620.58,121.3Z"/><path class="cls-1" d="M625.31,206.71q-15.88,0-15.89-13,0-10.81,14.7-19.43,12.51-7.26,31.94-13.68,9-2.88,13-4.57a86.09,86.09,0,0,0,4.39-28,22.46,22.46,0,0,0-.34-4.57,104.21,104.21,0,0,1-13,19.77q-9.79,12.16-19.43,9.46-8.79-3.7-8.78-14.53,0-14.52,14.53-31.93,7.94-9.47,18.58-12a20.42,20.42,0,0,1,5.75-.84,25.73,25.73,0,0,1,14.87,5.07q2.7,2.19,2.7,3.71a5.08,5.08,0,0,1-1,3c-.68,1-1.39,1.07-2.12.34a5.59,5.59,0,0,1-1.43-2.11q-2.21-6.25-7.1-6.25-9,0-20.1,12.5a88.57,88.57,0,0,0-10.82,15.21c-3.72,6.75-5.57,12-5.57,15.62s1.12,6.12,3.37,7.36a6.11,6.11,0,0,0,2.37.5q3.89,0,9.72-5.32a61.48,61.48,0,0,0,10.81-13.52q5-8.19,6.34-12.75c.9-3,2-5,3.29-5.75a9.38,9.38,0,0,1,4.31-1.35,6.06,6.06,0,0,0,3.21-.85A103.28,103.28,0,0,1,685,126.54a89.17,89.17,0,0,1-3.55,23.23q7.77-5.58,11.07-10a67,67,0,0,0,5.24-7.94c1.29-2.36,2.45-4.7,3.46-7s1.69-3.8,2-4.48a2.31,2.31,0,0,1,1.69-1.26c.78-.17,1.18.19,1.18,1.09a5.24,5.24,0,0,1-.51,2q-7.42,15.37-12.42,22.22a34.69,34.69,0,0,1-13.6,10.9,100,100,0,0,1-11.74,22.81,82.23,82.23,0,0,1-19.34,19.93Q636.79,206.72,625.31,206.71ZM613,196.91q0,6.42,8.28,6.42a26.73,26.73,0,0,0,11.07-2.87,58.46,58.46,0,0,0,10.22-5.91Q649.47,189,657.75,178a86.15,86.15,0,0,0,9.63-17.07l-5.92,2q-26.36,9.12-37.17,16.22a24.61,24.61,0,0,0-10.47,13.35A14.32,14.32,0,0,0,613,196.91Z"/><path class="cls-1" d="M764.19,75.26q-8.12,17.58-8.11,31.43,0,28.55,19.6,35a45.4,45.4,0,0,0,11.74,1.52,49.31,49.31,0,0,0,12.08-1.52A72.17,72.17,0,0,0,821.3,132q9.63-6.42,12.16-12.33Q840.23,104,848,104c2.58,0,4.33,1.47,5.23,4.4a6.84,6.84,0,0,1,.34,3.71,97.17,97.17,0,0,1-7.26,26.11,248.76,248.76,0,0,1-15.72,29.65,156.61,156.61,0,0,1,37,4.39c2.37.57,3.55,1.36,3.55,2.37,0,1.24-1.63,1.46-4.9.68q-11.65-3-33.62-3h-4.39a101,101,0,0,1-27.46,26.28q-17.14,11.4-33.37,15.63a61.56,61.56,0,0,1-15.21,2.36A31.27,31.27,0,0,1,741.72,215q-12.33-4.56-12.34-12a11.26,11.26,0,0,1,1.19-4.73q4.56-10.14,24-18.75a116.39,116.39,0,0,1,31-9,292.48,292.48,0,0,1,36.58-2.7q12.51-21.12,17.07-41.56l.67-2.88a97,97,0,0,1-18.33,13.77,88.47,88.47,0,0,1-17.82,8.37q-12.16,3.88-20,3.88a39.55,39.55,0,0,1-13.77-2.19q-10.82-3.72-17.58-14.87-7.26-11.82-7.26-28.22T753.71,69q-11.15-11.49-11.15-24.42T753,20c1.35-1.46,2.34-2,3-1.61s.36,1.39-.76,3q-7.61,10.14-7.61,20.45,0,11.82,8.79,22.13a68.37,68.37,0,0,1,3.72-6.59A87.53,87.53,0,0,1,796,24.23q17.73-9.12,34.29-9.12a62.24,62.24,0,0,1,9.13.68q21.79,3.38,29.4,17.91a26.22,26.22,0,0,1,3,12.41q0,6.69-4.23,14.28-9.45,16.39-33.11,23A92.88,92.88,0,0,1,809,86.92Q781.6,86.92,764.19,75.26ZM738,204.18q0,4.73,8.11,6.42a24.38,24.38,0,0,0,5.92.67q12,0,30.41-8.61,23.31-10.65,37-30.25a234.4,234.4,0,0,0-31.09,2.71,92.75,92.75,0,0,0-36.66,14Q738,197.93,738,204.18ZM834.14,20.35q-14.53,0-30.75,9.8-23.82,14.19-37,40.72a48.77,48.77,0,0,0,18.33,8.61Q795.12,82,801.36,82q35.65,0,53.9-19.09,9.12-9.8,9.12-19.6,0-15.54-17.4-20.95A42.18,42.18,0,0,0,834.14,20.35Z"/><path class="cls-1" d="M895.13,145.72q0,4.72,3.38,4.73,7.93,0,22.47-29.74c.79-1.58,1.49-2.2,2.12-1.86a1.53,1.53,0,0,1,.92,1.35c0,.57-.64,2.17-1.94,4.82s-2.59,5.18-3.88,7.6-3.19,5.61-5.66,9.55Q904.76,154,896,154a10.67,10.67,0,0,1-9.13-4.73,10.45,10.45,0,0,1-1.52-6,31.68,31.68,0,0,1,1.69-9.21q1.69-5.4,9.3-17.57a10.36,10.36,0,0,0,1.85-4.82c0-1.18-1-1.77-2.87-1.77s-5.57,2.53-11,7.6Q872.16,128.65,860.66,151c-.78,1.68-2.87,2.53-6.25,2.53q-4.56.33-5.74,1,32.1-66.73,46.46-93.09a35.74,35.74,0,0,1,5.66-8.28,8.1,8.1,0,0,1,5.83-2.37,29.94,29.94,0,0,1,3.55.42,15.67,15.67,0,0,0,4.05.26q-5.06,5.24-18.16,29T871,128.65a123.16,123.16,0,0,1,14.28-15.54,84.39,84.39,0,0,1,15.46-10.56q9.12-5,13.35-5a5,5,0,0,1,1.85.34Q895.14,134.4,895.13,145.72Z"/><path class="cls-1" d="M951.9,94.18q12.33,0,12.34,15.55a36.74,36.74,0,0,1-3.72,15.2,60.25,60.25,0,0,1-14.19,19.94q2.19,4.23,7.94,4.23,4.56,0,8.61-4.57a46.7,46.7,0,0,0,7.27-9.2l3.21-5.83q1-1.86,2.62-5.33c1.07-2.3,1.71-3.71,1.94-4.22a1.19,1.19,0,0,1,1.18-.76c1.13-.11,1.69.28,1.69,1.18a2.79,2.79,0,0,1-.33,1.19l-1,2.36c-.67,1.58-1.18,2.7-1.52,3.38s-.93,1.89-1.77,3.63-1.58,3.13-2.2,4.14-1.46,2.37-2.53,4.06a39.45,39.45,0,0,1-2.88,4.05c-.84,1-1.88,2.14-3.12,3.38a18.85,18.85,0,0,1-3.55,2.87,15.58,15.58,0,0,1-7.94,2.54q-6.93,0-10.81-4.39-7.79,5.74-14.37,5.74-12.33,0-12.33-15.54a36.62,36.62,0,0,1,3.72-15.21,56.71,56.71,0,0,1,14.27-20.11Q943.62,94.18,951.9,94.18Zm1.86,5.24q-4.56,0-10.81,6.08t-11.16,16.56q-5.91,12.16-5.91,19.94t5.91,7.77q4.23,0,9.47-4.56a14.19,14.19,0,0,1-2.71-8.28q.35-7.26,5.92-7.26a4.76,4.76,0,0,1,3.63,1.52,4.33,4.33,0,0,1,1.44,2.78,11,11,0,0,1-.34,2.62,95.7,95.7,0,0,0,6.59-12A38.32,38.32,0,0,0,960,107.7Q960,99.42,953.76,99.42Z"/><path class="cls-1" d="M992.28,150.11a23.06,23.06,0,0,0,3,.34q6.76,0,13.35-7.94,3.55-4.39,12.67-22.14a1.2,1.2,0,0,1,1.18-.84c1-.11,1.52.28,1.52,1.18a7.59,7.59,0,0,1-.76,1.94c-.5,1.08-1,2.14-1.43,3.21s-1.18,2.62-2.2,4.65-1.89,3.66-2.62,4.9-1.66,2.76-2.78,4.56a20.08,20.08,0,0,1-3.38,4.23l-3.55,3.71a16,16,0,0,1-6.76,4.06,20.52,20.52,0,0,1-12.17.34,17.8,17.8,0,0,1-6.92,1.69q-12,0-14.53-9.47a23.8,23.8,0,0,1-.51-5.32,10,10,0,0,1,2.11-6q2.12-2.86,4.48-3,8.61-16.38,14.7-29.57,6.75-14.35,15.71-14.36a10.64,10.64,0,0,1,4.65,1.1c1.52.73,2.08,1.55,1.69,2.45s-1.21,1.07-2.45.51a8.09,8.09,0,0,0-3.21-.85,5.23,5.23,0,0,0-2.37.51Q996,92.66,996,101.62a19.27,19.27,0,0,0,1.35,7.77c.9,2,1.91,4.22,3,6.59q3.89,8.79,3.89,14.36a19.85,19.85,0,0,1-3.55,11A31.42,31.42,0,0,1,992.28,150.11Zm-18.42-5.74a15.89,15.89,0,0,0,.17,2.19c.9,3,3,4.56,6.25,4.56a7.51,7.51,0,0,0,3.38-.67q-6.24-3.88-6.75-12.67A9.18,9.18,0,0,0,973.86,144.37Zm12.68,4.56q7.43-5.75,7.43-18.59A120.21,120.21,0,0,0,992.79,116a118.15,118.15,0,0,1-1.19-12.33,37.83,37.83,0,0,1,.17-4.4q-12.84,25.69-15.88,31.26,3.55,0,3.55,5.07Q979.44,145.55,986.54,148.93Z"/><path class="cls-1" d="M1051.08,145.72c0,3.15,1.12,4.73,3.38,4.73q7.93,0,22.47-29.74c.79-1.58,1.49-2.2,2.11-1.86a1.52,1.52,0,0,1,.93,1.35c0,.57-.65,2.17-1.94,4.82s-2.59,5.18-3.89,7.6-3.18,5.61-5.66,9.55Q1060.71,154,1051.92,154a10.65,10.65,0,0,1-9.12-4.73,10.45,10.45,0,0,1-1.52-6,31.68,31.68,0,0,1,1.69-9.21q1.68-5.4,9.29-17.57a10.29,10.29,0,0,0,1.86-4.82c0-1.18-1-1.77-2.87-1.77s-5.58,2.53-11,7.6q-12.16,11.15-23.66,33.46c-.79,1.68-2.87,2.53-6.25,2.53q-4.56.33-5.75,1,32.1-66.73,46.47-93.09a35.43,35.43,0,0,1,5.66-8.28,8.08,8.08,0,0,1,5.83-2.37,30.18,30.18,0,0,1,3.55.42,15.67,15.67,0,0,0,4.05.26q-5.07,5.24-18.16,29t-25.09,48.24a123.94,123.94,0,0,1,14.27-15.54,85.08,85.08,0,0,1,15.46-10.56q9.13-5,13.35-5a5,5,0,0,1,1.86.34Q1051.09,134.4,1051.08,145.72Z"/></svg>